<svg height="96" viewBox="0 0 96 96" width="96" xmlns="http://www.w3.org/2000/svg"><path d="m79 86h-18c-2.761719 0-5-2.238281-5-5v-18c0-2.210938-1.789062-4-4-4h-8c-2.210938 0-4 1.789062-4 4v18c0 2.761719-2.238281 5-5 5h-18c-2.761719 0-5-2.238281-5-5v-38.175781c0-4.597657 2.109375-8.941407 5.71875-11.785157l28.421875-22.398437c1.089844-.855469 2.628906-.855469 3.714844 0l28.429687 22.398437c3.609375 2.84375 5.714844 7.1875 5.714844 11.78125v38.179688c0 2.761719-2.238281 5-5 5zm0 0" fill="#fff"/></svg>