<svg height="1026" viewBox="0 0 1026 1026" width="1026" xmlns="http://www.w3.org/2000/svg"><path d="m512.7.5c282.769792 0 512 229.230208 512 512s-229.230208 512-512 512-512-229.230208-512-512 229.230208-512 512-512zm0 87c-234.170667 0-424 189.829333-424 424s189.829333 424 424 424 424-189.829333 424-424-189.829333-424-424-424zm2.5 50c207.420497 0 375.55638 167.900943 375.55638 375s-168.135883 375-375.55638 375-375.55638-167.900943-375.55638-375 168.135883-375 375.55638-375zm-77.5 173c-134.758591 0-244 109.241409-244 244s109.241409 244 244 244 244-109.241409 244-244-109.241409-244-244-244zm-.5 50c107.422717 0 194.5 86.636887 194.5 193.5s-87.077283 193.5-194.5 193.5-194.5-86.636887-194.5-193.5 87.077283-193.5 194.5-193.5zm75 73c-43.907 0-79.5 35.593-79.5 79.5s35.593 79.5 79.5 79.5 79.5-35.593 79.5-79.5-35.593-79.5-79.5-79.5zm-19 80c14.359849 0 26 11.641132 26 26s-11.640151 26-26 26-26-11.641132-26-26 11.640151-26 26-26z" transform="matrix(1 0 0 -1 .3 1025.5)"/></svg>